<svg xmlns="http://www.w3.org/2000/svg" viewBox="0 0 256 256" role="img" aria-label="Wayang Lingua Nusantara logo">
  <defs>
    <linearGradient id="g" x1="0" y1="0" x2="1" y2="1">
      <stop stop-color="#fff0c8" offset="0"/>
      <stop stop-color="#d4a437" offset="0.55"/>
      <stop stop-color="#8f5d22" offset="1"/>
    </linearGradient>
    <filter id="s" x="-20%" y="-20%" width="140%" height="140%">
      <feDropShadow dx="0" dy="8" stdDeviation="6" flood-color="#000" flood-opacity="0.35"/>
    </filter>
  </defs>
  <rect width="256" height="256" rx="48" fill="#061326"/>
  <path d="M49 200V83c0-14 42-51 79-51s79 37 79 51v117" fill="none" stroke="url(#g)" stroke-width="8" stroke-linecap="round"/>
  <path d="M128 42c-12 18-30 27-49 42 11-5 27-4 38 2-20 16-30 33-37 62 25-15 56-21 89-5-5-23-14-42-31-57 11-6 27-7 39-2-20-16-38-24-49-42Z" fill="url(#g)" opacity=".17"/>
  <g filter="url(#s)" fill="none" stroke="url(#g)" stroke-width="5" stroke-linecap="round" stroke-linejoin="round">
    <path d="M116 71c-20 10-28 28-23 45 5 16 24 23 38 14 15-9 17-30 8-43-5-8-13-13-23-16Z"/>
    <path d="M93 99c-25 15-37 39-31 69"/>
    <path d="M132 120c18 18 39 26 63 23"/>
    <path d="M122 134c3 26-4 48-21 65"/>
    <path d="M112 81c18 2 37-9 49-25"/>
    <path d="M139 89c20 2 37 12 49 30"/>
    <path d="M81 158c-20 6-34 19-42 39"/>
    <path d="M104 199c22-3 39-13 52-30"/>
    <circle cx="121" cy="100" r="5" fill="#d4a437"/>
  </g>
  <path d="M35 216h186" stroke="url(#g)" stroke-width="6" stroke-linecap="round"/>
  <text x="128" y="236" text-anchor="middle" fill="#f5e4bd" font-family="Georgia,serif" font-size="18" letter-spacing="2">WLN</text>
</svg>
