<svg xmlns="http://www.w3.org/2000/svg" viewBox="0 0 900 1200">
<defs>
  <radialGradient id="g" cx="50%" cy="36%" r="62%"><stop offset="0" stop-color="#ffe8a5" stop-opacity=".95"/><stop offset=".42" stop-color="#ffd166" stop-opacity=".55"/><stop offset="1" stop-color="#08121f" stop-opacity="1"/></radialGradient>
  <linearGradient id="gold" x1="0" x2="1"><stop stop-color="#f8d75e"/><stop offset=".55" stop-color="#b57b1b"/><stop offset="1" stop-color="#fff1ad"/></linearGradient>
  <filter id="glow" x="-20%" y="-20%" width="140%" height="140%"><feGaussianBlur stdDeviation="7" result="b"/><feMerge><feMergeNode in="b"/><feMergeNode in="SourceGraphic"/></feMerge></filter>
</defs>
<rect width="900" height="1200" rx="70" fill="#07111d"/>
<rect x="26" y="26" width="848" height="1148" rx="58" fill="url(#g)" opacity=".96"/>
<path d="M92 1040 C250 940 650 940 808 1040" stroke="url(#gold)" stroke-width="8" fill="none" opacity=".8"/>
<g filter="url(#glow)" transform="translate(0,60)">
  <ellipse cx="452" cy="530" rx="182" ry="248" fill="#02070b" opacity=".96"/>
  <circle cx="450" cy="260" r="85" fill="#02070b"/>
  <path d="M390 242 C330 208 325 145 382 120 C338 118 315 90 336 60 C400 108 460 126 505 198 C572 182 642 206 704 260 C626 250 565 272 532 326 C504 346 445 337 390 242Z" fill="#02070b"/>
  <path d="M315 498 C200 540 152 615 118 724" stroke="#02070b" stroke-width="46" stroke-linecap="round" fill="none"/>
  <path d="M590 500 C710 536 766 606 810 720" stroke="#02070b" stroke-width="46" stroke-linecap="round" fill="none"/>
  <path d="M370 765 C330 895 270 994 204 1080" stroke="#02070b" stroke-width="52" stroke-linecap="round"/>
  <path d="M525 770 C580 890 630 990 690 1080" stroke="#02070b" stroke-width="52" stroke-linecap="round"/>
  <path d="M255 322 C338 355 559 356 647 322" stroke="url(#gold)" stroke-width="12" fill="none" opacity=".8"/>
  <path d="M340 430 C410 465 486 465 560 430" stroke="url(#gold)" stroke-width="12" fill="none" opacity=".7"/>
  <g stroke="url(#gold)" stroke-width="8" opacity=".85" fill="none">
    <circle cx="450" cy="260" r="115"/><path d="M450 120 L483 208 L574 205 L500 258 L530 350 L450 295 L370 350 L400 258 L326 205 L417 208Z"/>
    <path d="M200 740 C260 700 320 700 380 740"/><path d="M520 740 C580 700 640 700 700 740"/>
  </g>
</g>
<g font-family="Georgia,serif" text-anchor="middle">
  <text x="450" y="104" fill="#fff8e6" font-size="54" font-weight="700">Kresna</text>
  <text x="450" y="159" fill="#ffd166" font-size="30" font-weight="700">Intercultural Guide</text>
</g>
</svg>