<svg xmlns="http://www.w3.org/2000/svg" viewBox="0 0 900 1200">
<defs><radialGradient id="g" cx="50%" cy="28%" r="70%"><stop offset="0" stop-color="#fff0b4"/><stop offset=".28" stop-color="#c98a2e"/><stop offset="1" stop-color="#090503"/></radialGradient><filter id="glow"><feGaussianBlur stdDeviation="8" result="b"/><feMerge><feMergeNode in="b"/><feMergeNode in="SourceGraphic"/></feMerge></filter></defs>
<rect width="900" height="1200" fill="#080403"/><ellipse cx="450" cy="610" rx="310" ry="470" fill="url(#g)" opacity=".35" filter="url(#glow)"/>
<path d="M450 90 C560 180 610 260 585 360 C690 390 745 490 710 600 C680 700 590 760 520 780 L520 1080 L380 1080 L380 780 C300 755 220 680 200 590 C170 460 238 380 320 350 C292 245 342 165 450 90Z" fill="#120a05" stroke="#c98a2e" stroke-width="18" filter="url(#glow)"/>
<path d="M320 360 C410 300 500 300 585 360 C550 420 490 450 450 450 C405 450 350 420 320 360Z" fill="#261106" stroke="#ffe6a0" stroke-width="9"/>
<path d="M365 500 C430 545 500 545 555 500" fill="none" stroke="#ffd77b" stroke-width="12" stroke-linecap="round"/>
<path d="M260 620 C160 700 130 850 210 970" fill="none" stroke="#c98a2e" stroke-width="18" stroke-linecap="round"/>
<path d="M640 620 C740 700 770 850 690 970" fill="none" stroke="#c98a2e" stroke-width="18" stroke-linecap="round"/>
<circle cx="390" cy="380" r="22" fill="#fff4c5"/><circle cx="510" cy="380" r="22" fill="#fff4c5"/>
<text x="450" y="1145" text-anchor="middle" font-family="Georgia,serif" font-size="70" font-weight="700" fill="#ffe7a1">Gareng</text>
</svg>